<?xml version="1.0" encoding="UTF-8"?>
<svg version="1.1" xmlns="http://www.w3.org/2000/svg" width="10000" height="10000">
<path d="M0 0 C206.25 0 412.5 0 625 0 C625 206.25 625 412.5 625 625 C1862.5 625 3100 625 4375 625 C4375 418.75 4375 212.5 4375 0 C4581.25 0 4787.5 0 5000 0 C5000 206.25 5000 412.5 5000 625 C5412.5 625 5825 625 6250 625 C6250 2893.75 6250 5162.5 6250 7500 C3775 7500 1300 7500 -1250 7500 C-1250 5231.25 -1250 2962.5 -1250 625 C-837.5 625 -425 625 0 625 C0 418.75 0 212.5 0 0 Z M-625 1250 C-625 1662.5 -625 2075 -625 2500 C1437.5 2500 3500 2500 5625 2500 C5625 2087.5 5625 1675 5625 1250 C5418.75 1250 5212.5 1250 5000 1250 C5000 1456.25 5000 1662.5 5000 1875 C4793.75 1875 4587.5 1875 4375 1875 C4375 1668.75 4375 1462.5 4375 1250 C3137.5 1250 1900 1250 625 1250 C625 1456.25 625 1662.5 625 1875 C418.75 1875 212.5 1875 0 1875 C0 1668.75 0 1462.5 0 1250 C-206.25 1250 -412.5 1250 -625 1250 Z M-625 3125 C-625 4362.5 -625 5600 -625 6875 C1437.5 6875 3500 6875 5625 6875 C5625 5637.5 5625 4400 5625 3125 C3562.5 3125 1500 3125 -625 3125 Z " fill="#000000" transform="translate(2500,1250)"/>
</svg>
